<?xml version="1.0" encoding="UTF-8" standalone="no"?>
<!DOCTYPE svg PUBLIC "-//W3C//DTD SVG 1.1//EN" "http://www.w3.org/Graphics/SVG/1.1/DTD/svg11.dtd">
<!-- 由 Microsoft Visio, SVG Export 生成 figures.svg Page-6 -->
<svg xmlns="http://www.w3.org/2000/svg" xmlns:xlink="http://www.w3.org/1999/xlink" xmlns:ev="http://www.w3.org/2001/xml-events"
		xmlns:v="http://schemas.microsoft.com/visio/2003/SVGExtensions/" width="11.6929in" height="8.26772in"
		viewBox="0 0 841.89 595.276" xml:space="preserve" color-interpolation-filters="sRGB" class="st9">
	<v:documentProperties v:langID="2052" v:metric="true" v:viewMarkup="false">
		<v:userDefs>
			<v:ud v:nameU="msvSubprocessMaster" v:prompt="" v:val="VT4(Rectangle)"/>
			<v:ud v:nameU="msvNoAutoConnect" v:val="VT0(1):26"/>
		</v:userDefs>
	</v:documentProperties>

	<style type="text/css">
	<![CDATA[
		.st1 {visibility:visible}
		.st2 {fill:none;filter:url(#filter_2.6666667461395);stroke:none}
		.st3 {fill:#000000;filter:url(#filter_2.6666667461395);font-family:Arial;font-size:4.58334em;opacity:0.4}
		.st4 {fill:none;stroke:none;stroke-width:0.25}
		.st5 {fill:#000000;font-family:Arial;font-size:4.58334em}
		.st6 {fill:#000000;fill-opacity:0.4;filter:url(#filter_2.6666667461395);stroke:none}
		.st7 {fill:url(#grad0-17);stroke:none;stroke-width:0.25}
		.st8 {fill:url(#grad0-24);stroke:none;stroke-width:0.25}
		.st9 {fill:none;fill-rule:evenodd;font-size:12px;overflow:visible;stroke-linecap:square;stroke-miterlimit:3}
	]]>
	</style>

	<defs id="Patterns_And_Gradients">
		<linearGradient id="grad0-17" x1="0" y1="0" x2="1" y2="0" gradientTransform="rotate(180 0.5 0.5)">
			<stop offset="0" stop-color="#4672c4" stop-opacity="1"/>
			<stop offset="1" stop-color="#00b0f0" stop-opacity="1"/>
		</linearGradient>
		<linearGradient id="grad0-24" x1="0" y1="0" x2="1" y2="0" gradientTransform="rotate(0 0.5 0.5)">
			<stop offset="0" stop-color="#4672c4" stop-opacity="1"/>
			<stop offset="1" stop-color="#00fefe" stop-opacity="1"/>
		</linearGradient>
	</defs>
	<defs id="Filters">
		<filter id="filter_2.6666667461395">
			<feGaussianBlur stdDeviation="2.6666667461395"/>
		</filter>
	</defs>
	<g v:mID="20" v:index="6" v:groupContext="foregroundPage">
		<v:userDefs>
			<v:ud v:nameU="msvThemeOrder" v:val="VT0(0):26"/>
		</v:userDefs>
		<title>页-6</title>
		<v:pageProperties v:drawingScale="0.0393701" v:pageScale="0.0393701" v:drawingUnits="24" v:shadowOffsetX="9"
				v:shadowOffsetY="-9"/>
		<g id="group28-1" transform="translate(178.471,-254.072)" v:mID="28" v:groupContext="group">
			<title>工作表.28</title>
			<g id="shape24-2" v:mID="24" v:groupContext="shape" transform="translate(127.559,-30.9527)">
				<title>工作表.24</title>
				<desc>DDMTOLab</desc>
				<v:textBlock v:margins="rect(4,4,4,4)" v:tabSpace="42.5197"/>
				<v:textRect cx="154.6" cy="560.513" width="309.21" height="69.5256"/>
				<g id="shadow24-3" v:groupContext="shadow" v:shadowOffsetX="2.12132" v:shadowOffsetY="-2.12132" v:shadowType="1"
						transform="matrix(1,0,0,1,2.12132,2.12132)" class="st1">
					<rect x="0" y="525.75" width="309.2" height="69.5256" class="st2"/>
					<text x="7.9" y="577.01" class="st3" v:langID="2052"><v:paragraph v:horizAlign="1"/><v:tabList/>DDMTOLab</text>				</g>
				<rect x="0" y="525.75" width="309.2" height="69.5256" class="st4"/>
				<text x="7.9" y="577.01" class="st5" v:langID="2052"><v:paragraph v:horizAlign="1"/><v:tabList/>DDMTOLab</text>			</g>
			<g id="group25-10" v:mID="25" v:groupContext="group">
				<title>工作表.25</title>
				<g id="shape22-11" v:mID="22" v:groupContext="shape" transform="translate(-3.59712E-14,-34.5273)">
					<title>工作表.22</title>
					<g id="shadow22-12" v:groupContext="shadow" v:shadowOffsetX="2.12132" v:shadowOffsetY="-2.12132"
							v:shadowType="1" v:shadowAngle="-57" transform="matrix(1,0,0,1,2.12132,2.12132)" class="st1">
						<path d="M37.4 545.13 L37.4 584.53 L48.91 595.28 L60.42 595.28 L60.42 531.98 L60.42 530.06 L60.42 501.28
									 L0 535.81 L0 566.5 L37.4 545.13 Z" class="st6"/>
					</g>
					<path d="M37.4 545.13 L37.4 584.53 L48.91 595.28 L60.42 595.28 L60.42 531.98 L60.42 530.06 L60.42 501.28 L0 535.81
								 L0 566.5 L37.4 545.13 Z" class="st7"/>
				</g>
				<g id="shape23-18" v:mID="23" v:groupContext="shape" transform="translate(67.1363,0)">
					<title>工作表.23</title>
					<g id="shadow23-19" v:groupContext="shadow" v:shadowOffsetX="2.12132" v:shadowOffsetY="-2.12132"
							v:shadowType="1" v:shadowAngle="-57" transform="matrix(1,0,0,1,2.12132,2.12132)" class="st1">
						<path d="M0 595.28 L23.02 580.89 L23.02 510.6 L60.42 531.98 L60.42 501.28 L0 466.76 L0 495.53 L0 497.45 L0
									 595.28 Z" class="st6"/>
					</g>
					<path d="M0 595.28 L23.02 580.89 L23.02 510.6 L60.42 531.98 L60.42 501.28 L0 466.76 L0 495.53 L0 497.45 L0 595.28
								 Z" class="st8"/>
				</g>
			</g>
		</g>
	</g>
</svg>
