<?xml version="1.0" encoding="UTF-8" standalone="no"?><!DOCTYPE svg PUBLIC "-//W3C//DTD SVG 1.1//EN" "http://www.w3.org/Graphics/SVG/1.1/DTD/svg11.dtd"><!-- 由 Microsoft Visio, SVG Export 生成 logo.svg Page-2 --><svg xmlns="http://www.w3.org/2000/svg" xmlns:xlink="http://www.w3.org/1999/xlink" 
		 width="841.89" height="595.276"
		viewBox="0 0 841.89 595.276" xml:space="preserve" color-interpolation-filters="sRGB" class="st9"><style type="text/css"><![CDATA[
		.st1 {visibility:visible}
		.st2 {fill:none;filter:url(#filter_2.6666667461395);stroke:none}
		.st3 {fill:#000000;filter:url(#filter_2.6666667461395);font-family:Arial;font-size:4.58334em;opacity:0.4}
		.st4 {fill:none;stroke:none;stroke-width:0.25}
		.st5 {fill:#f2f2f2;font-family:Arial;font-size:4.58334em}
		.st6 {fill:#000000;fill-opacity:0.4;filter:url(#filter_2.6666667461395);stroke:none}
		.st7 {fill:url(#grad0-16);stroke:none;stroke-width:0.25}
		.st8 {fill:url(#grad0-23);stroke:none;stroke-width:0.25}
		.st9 {fill:none;fill-rule:evenodd;font-size:12px;overflow:visible;stroke-linecap:square;stroke-miterlimit:3}
	]]></style><defs id="Patterns_And_Gradients"><linearGradient id="grad0-16" x1="0" y1="0" x2="1" y2="0" gradientTransform="rotate(180 0.5 0.5)"><stop offset="0" stop-color="#4672c4" stop-opacity="1"/><stop offset="1" stop-color="#00b0f0" stop-opacity="1"/></linearGradient><linearGradient id="grad0-23" x1="0" y1="0" x2="1" y2="0" gradientTransform="rotate(0 0.5 0.5)"><stop offset="0" stop-color="#4672c4" stop-opacity="1"/><stop offset="1" stop-color="#00fefe" stop-opacity="1"/></linearGradient></defs><defs id="Filters"><filter id="filter_2.6666667461395"><feGaussianBlur stdDeviation="2.6666667461395"/></filter></defs><g><title>页-2</title><g id="shape24-1"   transform="translate(306.03,-285.024)"><title>工作表.24</title><desc>DDMTOLab</desc><g id="shadow24-2"    
					transform="matrix(1,0,0,1,2.12132,2.12132)" class="st1"><rect x="0" y="525.75" width="309.2" height="69.5256" class="st2"/><text x="7.9" y="577.01" class="st3">DDMTOLab</text></g><rect x="0" y="525.75" width="309.2" height="69.5256" class="st4"/><text x="7.9" y="577.01" class="st5">DDMTOLab</text></g><g id="group25-9" transform="translate(178.471,-254.072)"><title>工作表.25</title><g id="shape22-10"   transform="translate(-3.59712E-14,-34.5273)"><title>工作表.22</title><g id="shadow22-11"    
						 transform="matrix(1,0,0,1,2.12132,2.12132)" class="st1"><path d="M37.4 545.13 L37.4 584.53 L48.91 595.28 L60.42 595.28 L60.42 531.98 L60.42 530.06 L60.42 501.28 L0 535.81
								 L0 566.5 L37.4 545.13 Z" class="st6"/></g><path d="M37.4 545.13 L37.4 584.53 L48.91 595.28 L60.42 595.28 L60.42 531.98 L60.42 530.06 L60.42 501.28 L0 535.81
							 L0 566.5 L37.4 545.13 Z" class="st7"/></g><g id="shape23-17"   transform="translate(67.1363,0)"><title>工作表.23</title><g id="shadow23-18"    
						 transform="matrix(1,0,0,1,2.12132,2.12132)" class="st1"><path d="M0 595.28 L23.02 580.89 L23.02 510.6 L60.42 531.98 L60.42 501.28 L0 466.76 L0 495.53 L0 497.45 L0 595.28
								 Z" class="st6"/></g><path d="M0 595.28 L23.02 580.89 L23.02 510.6 L60.42 531.98 L60.42 501.28 L0 466.76 L0 495.53 L0 497.45 L0 595.28
							 Z" class="st8"/></g></g></g></svg>
